<svg enable-background="new 0 0 32 32" viewBox="0 0 32 32" xmlns="http://www.w3.org/2000/svg"><path d="m19.86 31h-.72v-3.64h-6.28v3.64h-.72v-7.64h-.14c-.199 0-.36-.161-.36-.36v-8c0-.199.161-.36.36-.36h.14v-2.64c0-.096.038-.187.105-.254l1.895-1.895v-2.851c0-.043.008-.086.023-.126l1.477-3.939v-1.935h.72v1.935l1.477 3.939c.016.04.023.083.023.126v2.851l1.895 1.895c.067.067.105.159.105.254v2.64h.14c.199 0 .36.161.36.36v8c0 .199-.161.36-.36.36h-.14zm-1.5-4.36h.779v-3.28h-6.28v3.279h.78v-2.639h.72v2.64h1.28v-2.64h.72v2.64h1.28v-2.64h.721zm-6-4h7.28v-7.28h-7.28zm6-8h.779v-2.28h-6.28v2.28h.78v-1.64h.72v1.64h1.28v-1.64h.72v1.64h1.28v-1.64h.721zm-4.991-3h5.262l-1.28-1.28h-2.702zm2.991-2h.78v-2.28h-2.28v2.28h.78v-1.64h.72zm-1.34-3h1.961l-.981-2.615zm3.34 24.36h-.72v-3h.721zm-2 0h-.72v-3h.72zm-2 0h-.72v-3h.72zm1.64-9.89c-1.439 0-2.61-1.171-2.61-2.61s1.171-2.61 2.61-2.61 2.61 1.17 2.61 2.61-1.171 2.61-2.61 2.61zm0-4.5c-1.042 0-1.89.848-1.89 1.89s.848 1.89 1.89 1.89 1.89-.848 1.89-1.89-.848-1.89-1.89-1.89zm1.5 2.25h-1.5c-.096 0-.187-.038-.255-.106-.067-.067-.105-.159-.105-.255l.002-1.5.72.001-.002 1.14h1.14zm12.189-6.5h-4.601c-.799 0-1.449-.653-1.449-1.455 0-.941.876-1.711 1.72-1.555.281-.929 1.14-1.584 2.15-1.584.827 0 1.566.44 1.96 1.144.964-.128 1.891.746 1.891 1.781 0 .92-.75 1.669-1.671 1.669zm-4.6-2.316c-.41 0-.729.463-.729.861 0 .405.326.735.729.735h4.601c.524 0 .95-.427.95-.951 0-.679-.673-1.224-1.255-1.024-.181.064-.382-.031-.451-.21-.23-.589-.789-.97-1.424-.97-.792 0-1.446.592-1.521 1.377-.012.121-.084.229-.192.285s-.239.053-.344-.006c-.113-.064-.236-.097-.364-.097zm-16.774-1.684h-5.915c-.97 0-1.76-.793-1.76-1.768 0-.92.723-1.946 1.76-1.946.142 0 .283.017.42.051.32-1.199 1.406-2.056 2.693-2.056 1.05 0 1.986.571 2.464 1.48 1.184-.207 2.383.886 2.383 2.193 0 1.128-.918 2.046-2.045 2.046zm-5.915-2.994c-.585 0-1.04.659-1.04 1.226 0 .578.467 1.048 1.04 1.048h5.915c.73 0 1.325-.595 1.325-1.325 0-.709-.567-1.502-1.325-1.502-.143 0-.286.024-.426.071-.182.064-.38-.031-.451-.21-.311-.798-1.066-1.313-1.925-1.313-1.073 0-1.958.801-2.058 1.864-.011.121-.084.229-.192.285-.108.057-.238.055-.345-.006-.16-.092-.335-.138-.518-.138z"/><path d="m0 0h32v32h-32z" fill="none"/></svg>